<svg xmlns="http://www.w3.org/2000/svg" viewBox="0 0 860 1080" fill="none">
  <defs>
    <linearGradient id="coat" x1="294" y1="354" x2="610" y2="874" gradientUnits="userSpaceOnUse">
      <stop stop-color="#3A424B"/>
      <stop offset=".55" stop-color="#20262D"/>
      <stop offset="1" stop-color="#10151A"/>
    </linearGradient>
    <linearGradient id="coatEdge" x1="264" y1="514" x2="642" y2="870" gradientUnits="userSpaceOnUse">
      <stop stop-color="#74808A"/>
      <stop offset="1" stop-color="#252C33"/>
    </linearGradient>
    <linearGradient id="hair" x1="336" y1="166" x2="578" y2="430" gradientUnits="userSpaceOnUse">
      <stop stop-color="#64707B"/>
      <stop offset=".52" stop-color="#3B444D"/>
      <stop offset="1" stop-color="#242B32"/>
    </linearGradient>
    <linearGradient id="accent" x1="350" y1="282" x2="582" y2="684" gradientUnits="userSpaceOnUse">
      <stop stop-color="#F19A61"/>
      <stop offset=".5" stop-color="#E07A4A"/>
      <stop offset="1" stop-color="#BF6242"/>
    </linearGradient>
    <filter id="shadow" x="155" y="70" width="564" height="874" filterUnits="userSpaceOnUse" color-interpolation-filters="sRGB">
      <feFlood flood-opacity="0" result="BackgroundImageFix"/>
      <feColorMatrix in="SourceAlpha" values="0 0 0 0 0 0 0 0 0 0 0 0 0 0 0 0 0 0 127 0" result="hardAlpha"/>
      <feOffset dy="26"/>
      <feGaussianBlur stdDeviation="28"/>
      <feComposite in2="hardAlpha" operator="out"/>
      <feColorMatrix values="0 0 0 0 0.0705882 0 0 0 0 0.0823529 0 0 0 0 0.101961 0 0 0 0.24 0"/>
      <feBlend in2="BackgroundImageFix" result="effect1_dropShadow_1_2"/>
      <feBlend in="SourceGraphic" in2="effect1_dropShadow_1_2" result="shape"/>
    </filter>
  </defs>

  <g opacity=".42">
    <circle cx="640" cy="296" r="82" stroke="#A5AFB8" stroke-width="2" stroke-dasharray="10 12"/>
    <circle cx="640" cy="296" r="40" stroke="#E07A4A" stroke-width="3"/>
    <path d="M332 180H182" stroke="#A4AEB7" stroke-width="2" stroke-linecap="round"/>
    <path d="M300 220H120" stroke="#A4AEB7" stroke-width="2" stroke-linecap="round"/>
    <path d="M638 798L778 658" stroke="#E07A4A" stroke-width="3" stroke-linecap="round"/>
    <path d="M620 838L772 686" stroke="#E07A4A" stroke-width="2" stroke-linecap="round" opacity=".58"/>
    <path d="M168 824H288" stroke="#A4AEB7" stroke-width="2" stroke-linecap="round"/>
    <path d="M140 862H238" stroke="#A4AEB7" stroke-width="2" stroke-linecap="round"/>
    <path d="M142 120L274 120" stroke="#A4AEB7" stroke-width="2" stroke-linecap="round"/>
    <path d="M154 152L236 152" stroke="#A4AEB7" stroke-width="2" stroke-linecap="round"/>
  </g>

  <g filter="url(#shadow)">
    <path d="M344 176L394 114L428 200L344 176Z" fill="#F19A61"/>
    <path d="M520 166L590 112L580 208L520 166Z" fill="#F19A61"/>
    <path d="M370 188C418 154 496 156 548 204C600 252 610 334 588 402C555 501 452 552 374 500C318 462 288 396 292 326C296 264 320 218 370 188Z" fill="url(#hair)"/>
    <ellipse cx="452" cy="302" rx="90" ry="112" fill="#E8DED3"/>
    <path d="M362 252C398 206 460 182 522 194C570 204 610 236 624 278C594 268 560 270 536 290C510 312 480 324 446 326C412 327 378 312 362 252Z" fill="url(#hair)"/>
    <path d="M366 318C390 344 432 350 470 344C504 339 536 326 558 304C562 334 556 362 542 388C520 427 482 450 442 454C402 458 366 438 346 402C333 378 334 346 366 318Z" fill="#D6C9BC"/>
    <path d="M410 342C425 354 453 358 483 350" stroke="#2A3037" stroke-width="8" stroke-linecap="round"/>
    <path d="M404 278C420 266 442 264 458 272" stroke="#22282E" stroke-width="10" stroke-linecap="round"/>
    <path d="M488 276C508 267 530 268 546 280" stroke="#22282E" stroke-width="10" stroke-linecap="round"/>
    <path d="M448 464H506L522 556H432L448 464Z" fill="#D1C4B8"/>
    <path d="M286 622L374 478L432 538L370 860L238 808L286 622Z" fill="url(#coatEdge)"/>
    <path d="M602 606L522 480L472 542L544 872L676 808L602 606Z" fill="url(#coatEdge)"/>
    <path d="M392 516C428 498 484 494 524 508L620 640L610 914H284L274 644L392 516Z" fill="url(#coat)"/>
    <path d="M446 516L394 604L458 658L530 604L494 516H446Z" fill="url(#accent)"/>
    <path d="M344 706L458 656L576 706" stroke="#7A848E" stroke-width="8" stroke-linecap="round" opacity=".8"/>
    <path d="M456 652V914" stroke="#DCD2C7" stroke-width="5" stroke-dasharray="10 14" opacity=".9"/>
    <path d="M274 640L224 824L184 802L218 602L274 640Z" fill="#151A20"/>
    <path d="M618 640L668 824L708 802L674 602L618 640Z" fill="#151A20"/>
    <path d="M336 844H570" stroke="#E07A4A" stroke-width="6" stroke-linecap="round" stroke-dasharray="24 18"/>
    <path d="M386 538L338 590L360 622L424 556L386 538Z" fill="#F2A26C" opacity=".86"/>
  </g>
</svg>
